<svg width="174" height="84" viewBox="0 0 174 84" fill="none" xmlns="http://www.w3.org/2000/svg">
<rect width="174" height="82.3781" transform="translate(0 0.810938)" fill="#1F1F1D"/>
<path d="M24.4642 61.1906H12.0853V22.9525H24.8563C28.6029 22.9525 31.8206 23.718 34.5092 25.249C37.1978 26.7676 39.2578 28.9521 40.6893 31.8025C42.1332 34.6405 42.8551 38.0448 42.8551 42.0155C42.8551 45.9987 42.127 49.4217 40.6706 52.2846C39.2267 55.1475 37.1356 57.3506 34.3972 58.8941C31.6588 60.4251 28.3478 61.1906 24.4642 61.1906ZM17.8547 56.1495H24.1468C27.0595 56.1495 29.4805 55.6018 31.4098 54.5064C33.3391 53.3986 34.783 51.7991 35.7415 49.708C36.6999 47.6044 37.1791 45.0402 37.1791 42.0155C37.1791 39.0157 36.6999 36.4702 35.7415 34.3791C34.7955 32.2879 33.3827 30.7009 31.5032 29.618C29.6236 28.5351 27.2897 27.9936 24.5015 27.9936H17.8547V56.1495ZM74.6191 22.9525H80.4071V48.1023C80.4071 50.7784 79.7785 53.1497 78.5214 55.2159C77.2642 57.2697 75.4967 58.8879 73.2188 60.0704C70.9409 61.2404 68.271 61.8254 65.2089 61.8254C62.1594 61.8254 59.4956 61.2404 57.2178 60.0704C54.9399 58.8879 53.1724 57.2697 51.9152 55.2159C50.658 53.1497 50.0294 50.7784 50.0294 48.1023V22.9525H55.7988V47.6355C55.7988 49.3657 56.1784 50.9029 56.9377 52.2472C57.7094 53.5915 58.7986 54.6496 60.2051 55.4213C61.6117 56.1806 63.2796 56.5602 65.2089 56.5602C67.1507 56.5602 68.8249 56.1806 70.2314 55.4213C71.6504 54.6496 72.7334 53.5915 73.4802 52.2472C74.2395 50.9029 74.6191 49.3657 74.6191 47.6355V22.9525ZM88.7951 22.9525H95.7967L107.97 52.6767H108.418L120.592 22.9525H127.593V61.1906H122.104V33.5202H121.749L110.472 61.1346H105.916L94.6391 33.5016H94.2843V61.1906H88.7951V22.9525ZM135.981 61.1906V22.9525H149.985C152.698 22.9525 154.945 23.4006 156.725 24.2968C158.505 25.1805 159.837 26.3817 160.72 27.9003C161.604 29.4064 162.046 31.1055 162.046 32.9974C162.046 34.5907 161.753 35.935 161.168 37.0304C160.583 38.1133 159.799 38.9846 158.816 39.6443C157.845 40.2916 156.775 40.7646 155.604 41.0633V41.4367C156.874 41.499 158.113 41.9097 159.32 42.669C160.54 43.4159 161.548 44.4801 162.345 45.8617C163.141 47.2434 163.54 48.9238 163.54 50.9029C163.54 52.8571 163.079 54.6122 162.158 56.1681C161.249 57.7116 159.843 58.9377 157.938 59.8463C156.034 60.7425 153.6 61.1906 150.638 61.1906H135.981ZM141.751 56.2428H150.078C152.841 56.2428 154.82 55.7076 156.015 54.6371C157.21 53.5666 157.808 52.2286 157.808 50.6228C157.808 49.4155 157.503 48.3076 156.893 47.2994C156.283 46.2912 155.412 45.4883 154.279 44.8909C153.159 44.2934 151.827 43.9947 150.283 43.9947H141.751V56.2428ZM141.751 39.4949H149.48C150.775 39.4949 151.939 39.246 152.972 38.7481C154.017 38.2502 154.845 37.5532 155.455 36.657C156.077 35.7483 156.389 34.6778 156.389 33.4455C156.389 31.8647 155.835 30.5391 154.727 29.4686C153.619 28.3982 151.92 27.8629 149.63 27.8629H141.751V39.4949Z" fill="#FFFEFE"/>
</svg>
